<mxfile host="app.diagrams.net" modified="2023-10-30T22:31:42.856Z" agent="Mozilla/5.0 (X11; Linux x86_64) AppleWebKit/537.36 (KHTML, like Gecko) Chrome/118.0.0.0 Safari/537.36" etag="RLKT4Old6Hs-ShsAi-gR" version="22.0.8" type="device">
  <diagram name="Page-1" id="8TI67Nh7wmbXhhurHDxa">
    <mxGraphModel dx="3191" dy="1805" grid="1" gridSize="10" guides="1" tooltips="1" connect="1" arrows="1" fold="1" page="1" pageScale="1" pageWidth="850" pageHeight="1100" math="0" shadow="0">
      <root>
        <mxCell id="0" />
        <mxCell id="1" parent="0" />
        <mxCell id="f1Kl81jTNJC2XIE6eOeZ-92" style="edgeStyle=orthogonalEdgeStyle;shape=connector;rounded=0;orthogonalLoop=1;jettySize=auto;html=1;exitX=1;exitY=0;exitDx=0;exitDy=0;exitPerimeter=0;labelBackgroundColor=default;strokeColor=default;align=center;verticalAlign=middle;fontFamily=Helvetica;fontSize=11;fontColor=default;endArrow=none;endFill=0;" edge="1" parent="1" source="f1Kl81jTNJC2XIE6eOeZ-1">
          <mxGeometry relative="1" as="geometry">
            <mxPoint x="420" y="590" as="targetPoint" />
            <Array as="points">
              <mxPoint x="320" y="590" />
              <mxPoint x="420" y="590" />
            </Array>
          </mxGeometry>
        </mxCell>
        <mxCell id="f1Kl81jTNJC2XIE6eOeZ-1" value="" style="verticalLabelPosition=bottom;shadow=0;dashed=0;align=center;html=1;verticalAlign=top;shape=mxgraph.electrical.transistors.nmos;pointerEvents=1;" vertex="1" parent="1">
          <mxGeometry x="260" y="590" width="60" height="100" as="geometry" />
        </mxCell>
        <mxCell id="f1Kl81jTNJC2XIE6eOeZ-2" value="" style="verticalLabelPosition=bottom;shadow=0;dashed=0;align=center;html=1;verticalAlign=top;shape=mxgraph.electrical.transistors.pmos;pointerEvents=1;" vertex="1" parent="1">
          <mxGeometry x="200" y="470" width="60" height="100" as="geometry" />
        </mxCell>
        <mxCell id="f1Kl81jTNJC2XIE6eOeZ-3" value="" style="verticalLabelPosition=bottom;shadow=0;dashed=0;align=center;html=1;verticalAlign=top;shape=mxgraph.electrical.transistors.pmos;pointerEvents=1;" vertex="1" parent="1">
          <mxGeometry x="320" y="470" width="60" height="100" as="geometry" />
        </mxCell>
        <mxCell id="f1Kl81jTNJC2XIE6eOeZ-4" value="" style="verticalLabelPosition=bottom;shadow=0;dashed=0;align=center;html=1;verticalAlign=top;shape=mxgraph.electrical.transistors.nmos;pointerEvents=1;" vertex="1" parent="1">
          <mxGeometry x="260" y="710" width="60" height="100" as="geometry" />
        </mxCell>
        <mxCell id="f1Kl81jTNJC2XIE6eOeZ-91" style="edgeStyle=orthogonalEdgeStyle;shape=connector;rounded=0;orthogonalLoop=1;jettySize=auto;html=1;exitX=1;exitY=0;exitDx=0;exitDy=0;exitPerimeter=0;labelBackgroundColor=default;strokeColor=default;align=center;verticalAlign=middle;fontFamily=Helvetica;fontSize=11;fontColor=default;endArrow=none;endFill=0;" edge="1" parent="1" source="f1Kl81jTNJC2XIE6eOeZ-5">
          <mxGeometry relative="1" as="geometry">
            <mxPoint x="480" y="1030" as="targetPoint" />
            <Array as="points">
              <mxPoint x="320" y="1030" />
              <mxPoint x="480" y="1030" />
            </Array>
          </mxGeometry>
        </mxCell>
        <mxCell id="f1Kl81jTNJC2XIE6eOeZ-5" value="" style="verticalLabelPosition=bottom;shadow=0;dashed=0;align=center;html=1;verticalAlign=top;shape=mxgraph.electrical.transistors.nmos;pointerEvents=1;" vertex="1" parent="1">
          <mxGeometry x="260" y="1030" width="60" height="100" as="geometry" />
        </mxCell>
        <mxCell id="f1Kl81jTNJC2XIE6eOeZ-6" value="" style="verticalLabelPosition=bottom;shadow=0;dashed=0;align=center;html=1;verticalAlign=top;shape=mxgraph.electrical.transistors.pmos;pointerEvents=1;" vertex="1" parent="1">
          <mxGeometry x="140" y="910" width="60" height="100" as="geometry" />
        </mxCell>
        <mxCell id="f1Kl81jTNJC2XIE6eOeZ-7" value="" style="verticalLabelPosition=bottom;shadow=0;dashed=0;align=center;html=1;verticalAlign=top;shape=mxgraph.electrical.transistors.pmos;pointerEvents=1;" vertex="1" parent="1">
          <mxGeometry x="260" y="910" width="60" height="100" as="geometry" />
        </mxCell>
        <mxCell id="f1Kl81jTNJC2XIE6eOeZ-8" value="" style="verticalLabelPosition=bottom;shadow=0;dashed=0;align=center;html=1;verticalAlign=top;shape=mxgraph.electrical.transistors.nmos;pointerEvents=1;" vertex="1" parent="1">
          <mxGeometry x="260" y="1150" width="60" height="100" as="geometry" />
        </mxCell>
        <mxCell id="f1Kl81jTNJC2XIE6eOeZ-17" style="edgeStyle=orthogonalEdgeStyle;shape=connector;rounded=0;orthogonalLoop=1;jettySize=auto;html=1;exitX=1;exitY=1;exitDx=0;exitDy=0;exitPerimeter=0;labelBackgroundColor=default;strokeColor=default;align=center;verticalAlign=middle;fontFamily=Helvetica;fontSize=11;fontColor=default;endArrow=none;endFill=0;" edge="1" parent="1" source="f1Kl81jTNJC2XIE6eOeZ-9">
          <mxGeometry relative="1" as="geometry">
            <mxPoint x="320" y="1004.3128571428571" as="targetPoint" />
            <Array as="points">
              <mxPoint x="440" y="1030" />
              <mxPoint x="320" y="1030" />
            </Array>
          </mxGeometry>
        </mxCell>
        <mxCell id="f1Kl81jTNJC2XIE6eOeZ-9" value="" style="verticalLabelPosition=bottom;shadow=0;dashed=0;align=center;html=1;verticalAlign=top;shape=mxgraph.electrical.transistors.pmos;pointerEvents=1;" vertex="1" parent="1">
          <mxGeometry x="380" y="910" width="60" height="100" as="geometry" />
        </mxCell>
        <mxCell id="f1Kl81jTNJC2XIE6eOeZ-10" value="" style="verticalLabelPosition=bottom;shadow=0;dashed=0;align=center;html=1;verticalAlign=top;shape=mxgraph.electrical.transistors.nmos;pointerEvents=1;" vertex="1" parent="1">
          <mxGeometry x="260" y="1270" width="60" height="100" as="geometry" />
        </mxCell>
        <mxCell id="f1Kl81jTNJC2XIE6eOeZ-13" style="edgeStyle=orthogonalEdgeStyle;shape=connector;rounded=0;orthogonalLoop=1;jettySize=auto;html=1;exitX=1;exitY=1;exitDx=0;exitDy=0;exitPerimeter=0;entryX=1;entryY=0;entryDx=0;entryDy=0;entryPerimeter=0;labelBackgroundColor=default;strokeColor=default;align=center;verticalAlign=middle;fontFamily=Helvetica;fontSize=11;fontColor=default;endArrow=none;endFill=0;" edge="1" parent="1" source="f1Kl81jTNJC2XIE6eOeZ-2" target="f1Kl81jTNJC2XIE6eOeZ-1">
          <mxGeometry relative="1" as="geometry">
            <Array as="points">
              <mxPoint x="260" y="590" />
              <mxPoint x="320" y="590" />
            </Array>
          </mxGeometry>
        </mxCell>
        <mxCell id="f1Kl81jTNJC2XIE6eOeZ-14" style="edgeStyle=orthogonalEdgeStyle;shape=connector;rounded=0;orthogonalLoop=1;jettySize=auto;html=1;exitX=1;exitY=1;exitDx=0;exitDy=0;exitPerimeter=0;entryX=1;entryY=0;entryDx=0;entryDy=0;entryPerimeter=0;labelBackgroundColor=default;strokeColor=default;align=center;verticalAlign=middle;fontFamily=Helvetica;fontSize=11;fontColor=default;endArrow=none;endFill=0;" edge="1" parent="1" source="f1Kl81jTNJC2XIE6eOeZ-3" target="f1Kl81jTNJC2XIE6eOeZ-1">
          <mxGeometry relative="1" as="geometry">
            <Array as="points">
              <mxPoint x="380" y="590" />
              <mxPoint x="320" y="590" />
            </Array>
          </mxGeometry>
        </mxCell>
        <mxCell id="f1Kl81jTNJC2XIE6eOeZ-15" style="edgeStyle=orthogonalEdgeStyle;shape=connector;rounded=0;orthogonalLoop=1;jettySize=auto;html=1;exitX=1;exitY=1;exitDx=0;exitDy=0;exitPerimeter=0;entryX=1;entryY=0;entryDx=0;entryDy=0;entryPerimeter=0;labelBackgroundColor=default;strokeColor=default;align=center;verticalAlign=middle;fontFamily=Helvetica;fontSize=11;fontColor=default;endArrow=none;endFill=0;" edge="1" parent="1" source="f1Kl81jTNJC2XIE6eOeZ-1" target="f1Kl81jTNJC2XIE6eOeZ-4">
          <mxGeometry relative="1" as="geometry" />
        </mxCell>
        <mxCell id="f1Kl81jTNJC2XIE6eOeZ-16" style="edgeStyle=orthogonalEdgeStyle;shape=connector;rounded=0;orthogonalLoop=1;jettySize=auto;html=1;exitX=1;exitY=1;exitDx=0;exitDy=0;exitPerimeter=0;entryX=1;entryY=1;entryDx=0;entryDy=0;entryPerimeter=0;labelBackgroundColor=default;strokeColor=default;align=center;verticalAlign=middle;fontFamily=Helvetica;fontSize=11;fontColor=default;endArrow=none;endFill=0;" edge="1" parent="1" source="f1Kl81jTNJC2XIE6eOeZ-6" target="f1Kl81jTNJC2XIE6eOeZ-7">
          <mxGeometry relative="1" as="geometry">
            <Array as="points">
              <mxPoint x="200" y="1030" />
              <mxPoint x="320" y="1030" />
            </Array>
          </mxGeometry>
        </mxCell>
        <mxCell id="f1Kl81jTNJC2XIE6eOeZ-18" style="edgeStyle=orthogonalEdgeStyle;shape=connector;rounded=0;orthogonalLoop=1;jettySize=auto;html=1;exitX=1;exitY=1;exitDx=0;exitDy=0;exitPerimeter=0;entryX=1;entryY=0;entryDx=0;entryDy=0;entryPerimeter=0;labelBackgroundColor=default;strokeColor=default;align=center;verticalAlign=middle;fontFamily=Helvetica;fontSize=11;fontColor=default;endArrow=none;endFill=0;" edge="1" parent="1" source="f1Kl81jTNJC2XIE6eOeZ-7" target="f1Kl81jTNJC2XIE6eOeZ-5">
          <mxGeometry relative="1" as="geometry" />
        </mxCell>
        <mxCell id="f1Kl81jTNJC2XIE6eOeZ-19" style="edgeStyle=orthogonalEdgeStyle;shape=connector;rounded=0;orthogonalLoop=1;jettySize=auto;html=1;exitX=1;exitY=1;exitDx=0;exitDy=0;exitPerimeter=0;entryX=1;entryY=0;entryDx=0;entryDy=0;entryPerimeter=0;labelBackgroundColor=default;strokeColor=default;align=center;verticalAlign=middle;fontFamily=Helvetica;fontSize=11;fontColor=default;endArrow=none;endFill=0;" edge="1" parent="1" source="f1Kl81jTNJC2XIE6eOeZ-5" target="f1Kl81jTNJC2XIE6eOeZ-8">
          <mxGeometry relative="1" as="geometry" />
        </mxCell>
        <mxCell id="f1Kl81jTNJC2XIE6eOeZ-21" style="edgeStyle=orthogonalEdgeStyle;shape=connector;rounded=0;orthogonalLoop=1;jettySize=auto;html=1;exitX=1;exitY=1;exitDx=0;exitDy=0;exitPerimeter=0;entryX=1;entryY=0;entryDx=0;entryDy=0;entryPerimeter=0;labelBackgroundColor=default;strokeColor=default;align=center;verticalAlign=middle;fontFamily=Helvetica;fontSize=11;fontColor=default;endArrow=none;endFill=0;" edge="1" parent="1" source="f1Kl81jTNJC2XIE6eOeZ-8" target="f1Kl81jTNJC2XIE6eOeZ-10">
          <mxGeometry relative="1" as="geometry" />
        </mxCell>
        <mxCell id="f1Kl81jTNJC2XIE6eOeZ-22" style="edgeStyle=orthogonalEdgeStyle;shape=connector;rounded=0;orthogonalLoop=1;jettySize=auto;html=1;exitX=1;exitY=0;exitDx=0;exitDy=0;exitPerimeter=0;entryX=1;entryY=0;entryDx=0;entryDy=0;entryPerimeter=0;labelBackgroundColor=default;strokeColor=default;align=center;verticalAlign=middle;fontFamily=Helvetica;fontSize=11;fontColor=default;endArrow=none;endFill=0;" edge="1" parent="1" source="f1Kl81jTNJC2XIE6eOeZ-2" target="f1Kl81jTNJC2XIE6eOeZ-3">
          <mxGeometry relative="1" as="geometry" />
        </mxCell>
        <mxCell id="f1Kl81jTNJC2XIE6eOeZ-23" style="edgeStyle=orthogonalEdgeStyle;shape=connector;rounded=0;orthogonalLoop=1;jettySize=auto;html=1;exitX=1;exitY=0;exitDx=0;exitDy=0;exitPerimeter=0;entryX=1;entryY=0;entryDx=0;entryDy=0;entryPerimeter=0;labelBackgroundColor=default;strokeColor=default;align=center;verticalAlign=middle;fontFamily=Helvetica;fontSize=11;fontColor=default;endArrow=none;endFill=0;" edge="1" parent="1" source="f1Kl81jTNJC2XIE6eOeZ-6" target="f1Kl81jTNJC2XIE6eOeZ-7">
          <mxGeometry relative="1" as="geometry" />
        </mxCell>
        <mxCell id="f1Kl81jTNJC2XIE6eOeZ-25" style="edgeStyle=orthogonalEdgeStyle;shape=connector;rounded=0;orthogonalLoop=1;jettySize=auto;html=1;exitX=1;exitY=0;exitDx=0;exitDy=0;exitPerimeter=0;entryX=1;entryY=0;entryDx=0;entryDy=0;entryPerimeter=0;labelBackgroundColor=default;strokeColor=default;align=center;verticalAlign=middle;fontFamily=Helvetica;fontSize=11;fontColor=default;endArrow=none;endFill=0;" edge="1" parent="1" source="f1Kl81jTNJC2XIE6eOeZ-9" target="f1Kl81jTNJC2XIE6eOeZ-7">
          <mxGeometry relative="1" as="geometry" />
        </mxCell>
        <mxCell id="f1Kl81jTNJC2XIE6eOeZ-94" style="edgeStyle=orthogonalEdgeStyle;shape=connector;rounded=0;orthogonalLoop=1;jettySize=auto;html=1;exitX=1;exitY=0;exitDx=0;exitDy=0;exitPerimeter=0;labelBackgroundColor=default;strokeColor=default;align=center;verticalAlign=middle;fontFamily=Helvetica;fontSize=11;fontColor=default;endArrow=none;endFill=0;" edge="1" parent="1" source="f1Kl81jTNJC2XIE6eOeZ-39">
          <mxGeometry relative="1" as="geometry">
            <mxPoint x="480" y="1550" as="targetPoint" />
            <Array as="points">
              <mxPoint x="320" y="1550" />
              <mxPoint x="480" y="1550" />
            </Array>
          </mxGeometry>
        </mxCell>
        <mxCell id="f1Kl81jTNJC2XIE6eOeZ-39" value="" style="verticalLabelPosition=bottom;shadow=0;dashed=0;align=center;html=1;verticalAlign=top;shape=mxgraph.electrical.transistors.nmos;pointerEvents=1;" vertex="1" parent="1">
          <mxGeometry x="260" y="1550" width="60" height="100" as="geometry" />
        </mxCell>
        <mxCell id="f1Kl81jTNJC2XIE6eOeZ-40" value="" style="verticalLabelPosition=bottom;shadow=0;dashed=0;align=center;html=1;verticalAlign=top;shape=mxgraph.electrical.transistors.pmos;pointerEvents=1;" vertex="1" parent="1">
          <mxGeometry x="140" y="1430" width="60" height="100" as="geometry" />
        </mxCell>
        <mxCell id="f1Kl81jTNJC2XIE6eOeZ-41" value="" style="verticalLabelPosition=bottom;shadow=0;dashed=0;align=center;html=1;verticalAlign=top;shape=mxgraph.electrical.transistors.pmos;pointerEvents=1;" vertex="1" parent="1">
          <mxGeometry x="260" y="1430" width="60" height="100" as="geometry" />
        </mxCell>
        <mxCell id="f1Kl81jTNJC2XIE6eOeZ-42" value="" style="verticalLabelPosition=bottom;shadow=0;dashed=0;align=center;html=1;verticalAlign=top;shape=mxgraph.electrical.transistors.nmos;pointerEvents=1;" vertex="1" parent="1">
          <mxGeometry x="260" y="1670" width="60" height="100" as="geometry" />
        </mxCell>
        <mxCell id="f1Kl81jTNJC2XIE6eOeZ-43" style="edgeStyle=orthogonalEdgeStyle;shape=connector;rounded=0;orthogonalLoop=1;jettySize=auto;html=1;exitX=1;exitY=1;exitDx=0;exitDy=0;exitPerimeter=0;labelBackgroundColor=default;strokeColor=default;align=center;verticalAlign=middle;fontFamily=Helvetica;fontSize=11;fontColor=default;endArrow=none;endFill=0;" edge="1" parent="1" source="f1Kl81jTNJC2XIE6eOeZ-44">
          <mxGeometry relative="1" as="geometry">
            <mxPoint x="320" y="1519.4328571428568" as="targetPoint" />
            <Array as="points">
              <mxPoint x="440" y="1550" />
              <mxPoint x="320" y="1550" />
            </Array>
          </mxGeometry>
        </mxCell>
        <mxCell id="f1Kl81jTNJC2XIE6eOeZ-44" value="" style="verticalLabelPosition=bottom;shadow=0;dashed=0;align=center;html=1;verticalAlign=top;shape=mxgraph.electrical.transistors.pmos;pointerEvents=1;" vertex="1" parent="1">
          <mxGeometry x="380" y="1430" width="60" height="100" as="geometry" />
        </mxCell>
        <mxCell id="f1Kl81jTNJC2XIE6eOeZ-45" value="" style="verticalLabelPosition=bottom;shadow=0;dashed=0;align=center;html=1;verticalAlign=top;shape=mxgraph.electrical.transistors.nmos;pointerEvents=1;" vertex="1" parent="1">
          <mxGeometry x="260" y="1790" width="60" height="100" as="geometry" />
        </mxCell>
        <mxCell id="f1Kl81jTNJC2XIE6eOeZ-46" style="edgeStyle=orthogonalEdgeStyle;shape=connector;rounded=0;orthogonalLoop=1;jettySize=auto;html=1;exitX=1;exitY=1;exitDx=0;exitDy=0;exitPerimeter=0;entryX=1;entryY=1;entryDx=0;entryDy=0;entryPerimeter=0;labelBackgroundColor=default;strokeColor=default;align=center;verticalAlign=middle;fontFamily=Helvetica;fontSize=11;fontColor=default;endArrow=none;endFill=0;" edge="1" parent="1" source="f1Kl81jTNJC2XIE6eOeZ-40" target="f1Kl81jTNJC2XIE6eOeZ-41">
          <mxGeometry relative="1" as="geometry">
            <Array as="points">
              <mxPoint x="200" y="1550" />
              <mxPoint x="320" y="1550" />
            </Array>
          </mxGeometry>
        </mxCell>
        <mxCell id="f1Kl81jTNJC2XIE6eOeZ-47" style="edgeStyle=orthogonalEdgeStyle;shape=connector;rounded=0;orthogonalLoop=1;jettySize=auto;html=1;exitX=1;exitY=1;exitDx=0;exitDy=0;exitPerimeter=0;entryX=1;entryY=0;entryDx=0;entryDy=0;entryPerimeter=0;labelBackgroundColor=default;strokeColor=default;align=center;verticalAlign=middle;fontFamily=Helvetica;fontSize=11;fontColor=default;endArrow=none;endFill=0;" edge="1" parent="1" source="f1Kl81jTNJC2XIE6eOeZ-41" target="f1Kl81jTNJC2XIE6eOeZ-39">
          <mxGeometry relative="1" as="geometry" />
        </mxCell>
        <mxCell id="f1Kl81jTNJC2XIE6eOeZ-48" style="edgeStyle=orthogonalEdgeStyle;shape=connector;rounded=0;orthogonalLoop=1;jettySize=auto;html=1;exitX=1;exitY=1;exitDx=0;exitDy=0;exitPerimeter=0;entryX=1;entryY=0;entryDx=0;entryDy=0;entryPerimeter=0;labelBackgroundColor=default;strokeColor=default;align=center;verticalAlign=middle;fontFamily=Helvetica;fontSize=11;fontColor=default;endArrow=none;endFill=0;" edge="1" parent="1" source="f1Kl81jTNJC2XIE6eOeZ-39" target="f1Kl81jTNJC2XIE6eOeZ-42">
          <mxGeometry relative="1" as="geometry" />
        </mxCell>
        <mxCell id="f1Kl81jTNJC2XIE6eOeZ-49" style="edgeStyle=orthogonalEdgeStyle;shape=connector;rounded=0;orthogonalLoop=1;jettySize=auto;html=1;exitX=1;exitY=1;exitDx=0;exitDy=0;exitPerimeter=0;entryX=1;entryY=0;entryDx=0;entryDy=0;entryPerimeter=0;labelBackgroundColor=default;strokeColor=default;align=center;verticalAlign=middle;fontFamily=Helvetica;fontSize=11;fontColor=default;endArrow=none;endFill=0;" edge="1" parent="1" source="f1Kl81jTNJC2XIE6eOeZ-42" target="f1Kl81jTNJC2XIE6eOeZ-45">
          <mxGeometry relative="1" as="geometry" />
        </mxCell>
        <mxCell id="f1Kl81jTNJC2XIE6eOeZ-50" style="edgeStyle=orthogonalEdgeStyle;shape=connector;rounded=0;orthogonalLoop=1;jettySize=auto;html=1;exitX=1;exitY=0;exitDx=0;exitDy=0;exitPerimeter=0;entryX=1;entryY=0;entryDx=0;entryDy=0;entryPerimeter=0;labelBackgroundColor=default;strokeColor=default;align=center;verticalAlign=middle;fontFamily=Helvetica;fontSize=11;fontColor=default;endArrow=none;endFill=0;" edge="1" parent="1" source="f1Kl81jTNJC2XIE6eOeZ-40" target="f1Kl81jTNJC2XIE6eOeZ-41">
          <mxGeometry relative="1" as="geometry" />
        </mxCell>
        <mxCell id="f1Kl81jTNJC2XIE6eOeZ-51" style="edgeStyle=orthogonalEdgeStyle;shape=connector;rounded=0;orthogonalLoop=1;jettySize=auto;html=1;exitX=1;exitY=0;exitDx=0;exitDy=0;exitPerimeter=0;entryX=1;entryY=0;entryDx=0;entryDy=0;entryPerimeter=0;labelBackgroundColor=default;strokeColor=default;align=center;verticalAlign=middle;fontFamily=Helvetica;fontSize=11;fontColor=default;endArrow=none;endFill=0;" edge="1" parent="1" source="f1Kl81jTNJC2XIE6eOeZ-44" target="f1Kl81jTNJC2XIE6eOeZ-41">
          <mxGeometry relative="1" as="geometry" />
        </mxCell>
        <mxCell id="f1Kl81jTNJC2XIE6eOeZ-95" style="edgeStyle=orthogonalEdgeStyle;shape=connector;rounded=0;orthogonalLoop=1;jettySize=auto;html=1;exitX=1;exitY=0;exitDx=0;exitDy=0;exitPerimeter=0;labelBackgroundColor=default;strokeColor=default;align=center;verticalAlign=middle;fontFamily=Helvetica;fontSize=11;fontColor=default;endArrow=none;endFill=0;" edge="1" parent="1" source="f1Kl81jTNJC2XIE6eOeZ-52">
          <mxGeometry relative="1" as="geometry">
            <mxPoint x="480" y="2070" as="targetPoint" />
            <Array as="points">
              <mxPoint x="320" y="2070" />
              <mxPoint x="480" y="2070" />
            </Array>
          </mxGeometry>
        </mxCell>
        <mxCell id="f1Kl81jTNJC2XIE6eOeZ-52" value="" style="verticalLabelPosition=bottom;shadow=0;dashed=0;align=center;html=1;verticalAlign=top;shape=mxgraph.electrical.transistors.nmos;pointerEvents=1;" vertex="1" parent="1">
          <mxGeometry x="260" y="2070" width="60" height="100" as="geometry" />
        </mxCell>
        <mxCell id="f1Kl81jTNJC2XIE6eOeZ-53" value="" style="verticalLabelPosition=bottom;shadow=0;dashed=0;align=center;html=1;verticalAlign=top;shape=mxgraph.electrical.transistors.pmos;pointerEvents=1;" vertex="1" parent="1">
          <mxGeometry x="140" y="1950" width="60" height="100" as="geometry" />
        </mxCell>
        <mxCell id="f1Kl81jTNJC2XIE6eOeZ-54" value="" style="verticalLabelPosition=bottom;shadow=0;dashed=0;align=center;html=1;verticalAlign=top;shape=mxgraph.electrical.transistors.pmos;pointerEvents=1;" vertex="1" parent="1">
          <mxGeometry x="260" y="1950" width="60" height="100" as="geometry" />
        </mxCell>
        <mxCell id="f1Kl81jTNJC2XIE6eOeZ-55" value="" style="verticalLabelPosition=bottom;shadow=0;dashed=0;align=center;html=1;verticalAlign=top;shape=mxgraph.electrical.transistors.nmos;pointerEvents=1;" vertex="1" parent="1">
          <mxGeometry x="260" y="2200" width="60" height="100" as="geometry" />
        </mxCell>
        <mxCell id="f1Kl81jTNJC2XIE6eOeZ-56" style="edgeStyle=orthogonalEdgeStyle;shape=connector;rounded=0;orthogonalLoop=1;jettySize=auto;html=1;exitX=1;exitY=1;exitDx=0;exitDy=0;exitPerimeter=0;labelBackgroundColor=default;strokeColor=default;align=center;verticalAlign=middle;fontFamily=Helvetica;fontSize=11;fontColor=default;endArrow=none;endFill=0;" edge="1" parent="1" source="f1Kl81jTNJC2XIE6eOeZ-57">
          <mxGeometry relative="1" as="geometry">
            <mxPoint x="320" y="2035.572857142857" as="targetPoint" />
            <Array as="points">
              <mxPoint x="440" y="2070" />
              <mxPoint x="320" y="2070" />
            </Array>
          </mxGeometry>
        </mxCell>
        <mxCell id="f1Kl81jTNJC2XIE6eOeZ-57" value="" style="verticalLabelPosition=bottom;shadow=0;dashed=0;align=center;html=1;verticalAlign=top;shape=mxgraph.electrical.transistors.pmos;pointerEvents=1;" vertex="1" parent="1">
          <mxGeometry x="380" y="1950" width="60" height="100" as="geometry" />
        </mxCell>
        <mxCell id="f1Kl81jTNJC2XIE6eOeZ-58" value="" style="verticalLabelPosition=bottom;shadow=0;dashed=0;align=center;html=1;verticalAlign=top;shape=mxgraph.electrical.transistors.nmos;pointerEvents=1;" vertex="1" parent="1">
          <mxGeometry x="260" y="2320" width="60" height="100" as="geometry" />
        </mxCell>
        <mxCell id="f1Kl81jTNJC2XIE6eOeZ-59" style="edgeStyle=orthogonalEdgeStyle;shape=connector;rounded=0;orthogonalLoop=1;jettySize=auto;html=1;exitX=1;exitY=1;exitDx=0;exitDy=0;exitPerimeter=0;entryX=1;entryY=1;entryDx=0;entryDy=0;entryPerimeter=0;labelBackgroundColor=default;strokeColor=default;align=center;verticalAlign=middle;fontFamily=Helvetica;fontSize=11;fontColor=default;endArrow=none;endFill=0;" edge="1" parent="1">
          <mxGeometry relative="1" as="geometry">
            <mxPoint x="200.00000000000023" y="2034.2028571428568" as="sourcePoint" />
            <mxPoint x="320.0000000000002" y="2034.2028571428568" as="targetPoint" />
            <Array as="points">
              <mxPoint x="200" y="2070" />
              <mxPoint x="320" y="2070" />
            </Array>
          </mxGeometry>
        </mxCell>
        <mxCell id="f1Kl81jTNJC2XIE6eOeZ-60" style="edgeStyle=orthogonalEdgeStyle;shape=connector;rounded=0;orthogonalLoop=1;jettySize=auto;html=1;exitX=1;exitY=1;exitDx=0;exitDy=0;exitPerimeter=0;entryX=1;entryY=0;entryDx=0;entryDy=0;entryPerimeter=0;labelBackgroundColor=default;strokeColor=default;align=center;verticalAlign=middle;fontFamily=Helvetica;fontSize=11;fontColor=default;endArrow=none;endFill=0;" edge="1" parent="1" source="f1Kl81jTNJC2XIE6eOeZ-54" target="f1Kl81jTNJC2XIE6eOeZ-52">
          <mxGeometry relative="1" as="geometry" />
        </mxCell>
        <mxCell id="f1Kl81jTNJC2XIE6eOeZ-61" style="edgeStyle=orthogonalEdgeStyle;shape=connector;rounded=0;orthogonalLoop=1;jettySize=auto;html=1;exitX=1;exitY=1;exitDx=0;exitDy=0;exitPerimeter=0;entryX=1;entryY=0;entryDx=0;entryDy=0;entryPerimeter=0;labelBackgroundColor=default;strokeColor=default;align=center;verticalAlign=middle;fontFamily=Helvetica;fontSize=11;fontColor=default;endArrow=none;endFill=0;" edge="1" parent="1" source="f1Kl81jTNJC2XIE6eOeZ-52" target="f1Kl81jTNJC2XIE6eOeZ-55">
          <mxGeometry relative="1" as="geometry" />
        </mxCell>
        <mxCell id="f1Kl81jTNJC2XIE6eOeZ-62" style="edgeStyle=orthogonalEdgeStyle;shape=connector;rounded=0;orthogonalLoop=1;jettySize=auto;html=1;exitX=1;exitY=1;exitDx=0;exitDy=0;exitPerimeter=0;entryX=1;entryY=0;entryDx=0;entryDy=0;entryPerimeter=0;labelBackgroundColor=default;strokeColor=default;align=center;verticalAlign=middle;fontFamily=Helvetica;fontSize=11;fontColor=default;endArrow=none;endFill=0;" edge="1" parent="1" source="f1Kl81jTNJC2XIE6eOeZ-55" target="f1Kl81jTNJC2XIE6eOeZ-58">
          <mxGeometry relative="1" as="geometry" />
        </mxCell>
        <mxCell id="f1Kl81jTNJC2XIE6eOeZ-63" style="edgeStyle=orthogonalEdgeStyle;shape=connector;rounded=0;orthogonalLoop=1;jettySize=auto;html=1;exitX=1;exitY=0;exitDx=0;exitDy=0;exitPerimeter=0;entryX=1;entryY=0;entryDx=0;entryDy=0;entryPerimeter=0;labelBackgroundColor=default;strokeColor=default;align=center;verticalAlign=middle;fontFamily=Helvetica;fontSize=11;fontColor=default;endArrow=none;endFill=0;" edge="1" parent="1" source="f1Kl81jTNJC2XIE6eOeZ-53" target="f1Kl81jTNJC2XIE6eOeZ-54">
          <mxGeometry relative="1" as="geometry" />
        </mxCell>
        <mxCell id="f1Kl81jTNJC2XIE6eOeZ-64" style="edgeStyle=orthogonalEdgeStyle;shape=connector;rounded=0;orthogonalLoop=1;jettySize=auto;html=1;exitX=1;exitY=0;exitDx=0;exitDy=0;exitPerimeter=0;entryX=1;entryY=0;entryDx=0;entryDy=0;entryPerimeter=0;labelBackgroundColor=default;strokeColor=default;align=center;verticalAlign=middle;fontFamily=Helvetica;fontSize=11;fontColor=default;endArrow=none;endFill=0;" edge="1" parent="1" source="f1Kl81jTNJC2XIE6eOeZ-57" target="f1Kl81jTNJC2XIE6eOeZ-54">
          <mxGeometry relative="1" as="geometry" />
        </mxCell>
        <mxCell id="f1Kl81jTNJC2XIE6eOeZ-96" style="edgeStyle=orthogonalEdgeStyle;shape=connector;rounded=0;orthogonalLoop=1;jettySize=auto;html=1;exitX=1;exitY=0;exitDx=0;exitDy=0;exitPerimeter=0;labelBackgroundColor=default;strokeColor=default;align=center;verticalAlign=middle;fontFamily=Helvetica;fontSize=11;fontColor=default;endArrow=none;endFill=0;" edge="1" parent="1" source="f1Kl81jTNJC2XIE6eOeZ-65">
          <mxGeometry relative="1" as="geometry">
            <mxPoint x="820" y="1110" as="targetPoint" />
            <Array as="points">
              <mxPoint x="720" y="1110" />
              <mxPoint x="820" y="1110" />
            </Array>
          </mxGeometry>
        </mxCell>
        <mxCell id="f1Kl81jTNJC2XIE6eOeZ-65" value="" style="verticalLabelPosition=bottom;shadow=0;dashed=0;align=center;html=1;verticalAlign=top;shape=mxgraph.electrical.transistors.nmos;pointerEvents=1;" vertex="1" parent="1">
          <mxGeometry x="660" y="1110" width="60" height="100" as="geometry" />
        </mxCell>
        <mxCell id="f1Kl81jTNJC2XIE6eOeZ-66" value="" style="verticalLabelPosition=bottom;shadow=0;dashed=0;align=center;html=1;verticalAlign=top;shape=mxgraph.electrical.transistors.pmos;pointerEvents=1;" vertex="1" parent="1">
          <mxGeometry x="600" y="990" width="60" height="100" as="geometry" />
        </mxCell>
        <mxCell id="f1Kl81jTNJC2XIE6eOeZ-67" value="" style="verticalLabelPosition=bottom;shadow=0;dashed=0;align=center;html=1;verticalAlign=top;shape=mxgraph.electrical.transistors.pmos;pointerEvents=1;" vertex="1" parent="1">
          <mxGeometry x="720" y="990" width="60" height="100" as="geometry" />
        </mxCell>
        <mxCell id="f1Kl81jTNJC2XIE6eOeZ-68" value="" style="verticalLabelPosition=bottom;shadow=0;dashed=0;align=center;html=1;verticalAlign=top;shape=mxgraph.electrical.transistors.nmos;pointerEvents=1;" vertex="1" parent="1">
          <mxGeometry x="660" y="1230" width="60" height="100" as="geometry" />
        </mxCell>
        <mxCell id="f1Kl81jTNJC2XIE6eOeZ-97" style="edgeStyle=orthogonalEdgeStyle;shape=connector;rounded=0;orthogonalLoop=1;jettySize=auto;html=1;exitX=1;exitY=0;exitDx=0;exitDy=0;exitPerimeter=0;labelBackgroundColor=default;strokeColor=default;align=center;verticalAlign=middle;fontFamily=Helvetica;fontSize=11;fontColor=default;endArrow=none;endFill=0;" edge="1" parent="1" source="f1Kl81jTNJC2XIE6eOeZ-69">
          <mxGeometry relative="1" as="geometry">
            <mxPoint x="880" y="1550" as="targetPoint" />
            <Array as="points">
              <mxPoint x="720" y="1550" />
            </Array>
          </mxGeometry>
        </mxCell>
        <mxCell id="f1Kl81jTNJC2XIE6eOeZ-69" value="" style="verticalLabelPosition=bottom;shadow=0;dashed=0;align=center;html=1;verticalAlign=top;shape=mxgraph.electrical.transistors.nmos;pointerEvents=1;" vertex="1" parent="1">
          <mxGeometry x="660" y="1550" width="60" height="100" as="geometry" />
        </mxCell>
        <mxCell id="f1Kl81jTNJC2XIE6eOeZ-70" value="" style="verticalLabelPosition=bottom;shadow=0;dashed=0;align=center;html=1;verticalAlign=top;shape=mxgraph.electrical.transistors.pmos;pointerEvents=1;" vertex="1" parent="1">
          <mxGeometry x="540" y="1430" width="60" height="100" as="geometry" />
        </mxCell>
        <mxCell id="f1Kl81jTNJC2XIE6eOeZ-71" value="" style="verticalLabelPosition=bottom;shadow=0;dashed=0;align=center;html=1;verticalAlign=top;shape=mxgraph.electrical.transistors.pmos;pointerEvents=1;" vertex="1" parent="1">
          <mxGeometry x="660" y="1430" width="60" height="100" as="geometry" />
        </mxCell>
        <mxCell id="f1Kl81jTNJC2XIE6eOeZ-72" value="" style="verticalLabelPosition=bottom;shadow=0;dashed=0;align=center;html=1;verticalAlign=top;shape=mxgraph.electrical.transistors.nmos;pointerEvents=1;" vertex="1" parent="1">
          <mxGeometry x="660" y="1670" width="60" height="100" as="geometry" />
        </mxCell>
        <mxCell id="f1Kl81jTNJC2XIE6eOeZ-73" style="edgeStyle=orthogonalEdgeStyle;shape=connector;rounded=0;orthogonalLoop=1;jettySize=auto;html=1;exitX=1;exitY=1;exitDx=0;exitDy=0;exitPerimeter=0;labelBackgroundColor=default;strokeColor=default;align=center;verticalAlign=middle;fontFamily=Helvetica;fontSize=11;fontColor=default;endArrow=none;endFill=0;" edge="1" parent="1" source="f1Kl81jTNJC2XIE6eOeZ-74">
          <mxGeometry relative="1" as="geometry">
            <mxPoint x="720" y="1522.3728571428571" as="targetPoint" />
            <Array as="points">
              <mxPoint x="840" y="1550" />
              <mxPoint x="720" y="1550" />
            </Array>
          </mxGeometry>
        </mxCell>
        <mxCell id="f1Kl81jTNJC2XIE6eOeZ-74" value="" style="verticalLabelPosition=bottom;shadow=0;dashed=0;align=center;html=1;verticalAlign=top;shape=mxgraph.electrical.transistors.pmos;pointerEvents=1;" vertex="1" parent="1">
          <mxGeometry x="780" y="1430" width="60" height="100" as="geometry" />
        </mxCell>
        <mxCell id="f1Kl81jTNJC2XIE6eOeZ-75" value="" style="verticalLabelPosition=bottom;shadow=0;dashed=0;align=center;html=1;verticalAlign=top;shape=mxgraph.electrical.transistors.nmos;pointerEvents=1;" vertex="1" parent="1">
          <mxGeometry x="660" y="1790" width="60" height="100" as="geometry" />
        </mxCell>
        <mxCell id="f1Kl81jTNJC2XIE6eOeZ-76" style="edgeStyle=orthogonalEdgeStyle;shape=connector;rounded=0;orthogonalLoop=1;jettySize=auto;html=1;exitX=1;exitY=1;exitDx=0;exitDy=0;exitPerimeter=0;entryX=1;entryY=0;entryDx=0;entryDy=0;entryPerimeter=0;labelBackgroundColor=default;strokeColor=default;align=center;verticalAlign=middle;fontFamily=Helvetica;fontSize=11;fontColor=default;endArrow=none;endFill=0;" edge="1" parent="1" source="f1Kl81jTNJC2XIE6eOeZ-66" target="f1Kl81jTNJC2XIE6eOeZ-65">
          <mxGeometry relative="1" as="geometry">
            <Array as="points">
              <mxPoint x="660" y="1110" />
              <mxPoint x="720" y="1110" />
            </Array>
          </mxGeometry>
        </mxCell>
        <mxCell id="f1Kl81jTNJC2XIE6eOeZ-77" style="edgeStyle=orthogonalEdgeStyle;shape=connector;rounded=0;orthogonalLoop=1;jettySize=auto;html=1;exitX=1;exitY=1;exitDx=0;exitDy=0;exitPerimeter=0;entryX=1;entryY=0;entryDx=0;entryDy=0;entryPerimeter=0;labelBackgroundColor=default;strokeColor=default;align=center;verticalAlign=middle;fontFamily=Helvetica;fontSize=11;fontColor=default;endArrow=none;endFill=0;" edge="1" parent="1" source="f1Kl81jTNJC2XIE6eOeZ-67" target="f1Kl81jTNJC2XIE6eOeZ-65">
          <mxGeometry relative="1" as="geometry">
            <Array as="points">
              <mxPoint x="780" y="1110" />
              <mxPoint x="720" y="1110" />
            </Array>
          </mxGeometry>
        </mxCell>
        <mxCell id="f1Kl81jTNJC2XIE6eOeZ-78" style="edgeStyle=orthogonalEdgeStyle;shape=connector;rounded=0;orthogonalLoop=1;jettySize=auto;html=1;exitX=1;exitY=1;exitDx=0;exitDy=0;exitPerimeter=0;entryX=1;entryY=0;entryDx=0;entryDy=0;entryPerimeter=0;labelBackgroundColor=default;strokeColor=default;align=center;verticalAlign=middle;fontFamily=Helvetica;fontSize=11;fontColor=default;endArrow=none;endFill=0;" edge="1" parent="1" source="f1Kl81jTNJC2XIE6eOeZ-65" target="f1Kl81jTNJC2XIE6eOeZ-68">
          <mxGeometry relative="1" as="geometry" />
        </mxCell>
        <mxCell id="f1Kl81jTNJC2XIE6eOeZ-79" style="edgeStyle=orthogonalEdgeStyle;shape=connector;rounded=0;orthogonalLoop=1;jettySize=auto;html=1;exitX=1;exitY=1;exitDx=0;exitDy=0;exitPerimeter=0;entryX=1;entryY=1;entryDx=0;entryDy=0;entryPerimeter=0;labelBackgroundColor=default;strokeColor=default;align=center;verticalAlign=middle;fontFamily=Helvetica;fontSize=11;fontColor=default;endArrow=none;endFill=0;" edge="1" parent="1" source="f1Kl81jTNJC2XIE6eOeZ-70" target="f1Kl81jTNJC2XIE6eOeZ-71">
          <mxGeometry relative="1" as="geometry">
            <Array as="points">
              <mxPoint x="600" y="1550" />
              <mxPoint x="720" y="1550" />
            </Array>
          </mxGeometry>
        </mxCell>
        <mxCell id="f1Kl81jTNJC2XIE6eOeZ-80" style="edgeStyle=orthogonalEdgeStyle;shape=connector;rounded=0;orthogonalLoop=1;jettySize=auto;html=1;exitX=1;exitY=1;exitDx=0;exitDy=0;exitPerimeter=0;entryX=1;entryY=0;entryDx=0;entryDy=0;entryPerimeter=0;labelBackgroundColor=default;strokeColor=default;align=center;verticalAlign=middle;fontFamily=Helvetica;fontSize=11;fontColor=default;endArrow=none;endFill=0;" edge="1" parent="1" source="f1Kl81jTNJC2XIE6eOeZ-71" target="f1Kl81jTNJC2XIE6eOeZ-69">
          <mxGeometry relative="1" as="geometry" />
        </mxCell>
        <mxCell id="f1Kl81jTNJC2XIE6eOeZ-81" style="edgeStyle=orthogonalEdgeStyle;shape=connector;rounded=0;orthogonalLoop=1;jettySize=auto;html=1;exitX=1;exitY=1;exitDx=0;exitDy=0;exitPerimeter=0;entryX=1;entryY=0;entryDx=0;entryDy=0;entryPerimeter=0;labelBackgroundColor=default;strokeColor=default;align=center;verticalAlign=middle;fontFamily=Helvetica;fontSize=11;fontColor=default;endArrow=none;endFill=0;" edge="1" parent="1" source="f1Kl81jTNJC2XIE6eOeZ-69" target="f1Kl81jTNJC2XIE6eOeZ-72">
          <mxGeometry relative="1" as="geometry" />
        </mxCell>
        <mxCell id="f1Kl81jTNJC2XIE6eOeZ-82" style="edgeStyle=orthogonalEdgeStyle;shape=connector;rounded=0;orthogonalLoop=1;jettySize=auto;html=1;exitX=1;exitY=1;exitDx=0;exitDy=0;exitPerimeter=0;entryX=1;entryY=0;entryDx=0;entryDy=0;entryPerimeter=0;labelBackgroundColor=default;strokeColor=default;align=center;verticalAlign=middle;fontFamily=Helvetica;fontSize=11;fontColor=default;endArrow=none;endFill=0;" edge="1" parent="1" source="f1Kl81jTNJC2XIE6eOeZ-72" target="f1Kl81jTNJC2XIE6eOeZ-75">
          <mxGeometry relative="1" as="geometry" />
        </mxCell>
        <mxCell id="f1Kl81jTNJC2XIE6eOeZ-83" style="edgeStyle=orthogonalEdgeStyle;shape=connector;rounded=0;orthogonalLoop=1;jettySize=auto;html=1;exitX=1;exitY=0;exitDx=0;exitDy=0;exitPerimeter=0;entryX=1;entryY=0;entryDx=0;entryDy=0;entryPerimeter=0;labelBackgroundColor=default;strokeColor=default;align=center;verticalAlign=middle;fontFamily=Helvetica;fontSize=11;fontColor=default;endArrow=none;endFill=0;" edge="1" parent="1" source="f1Kl81jTNJC2XIE6eOeZ-66" target="f1Kl81jTNJC2XIE6eOeZ-67">
          <mxGeometry relative="1" as="geometry" />
        </mxCell>
        <mxCell id="f1Kl81jTNJC2XIE6eOeZ-84" style="edgeStyle=orthogonalEdgeStyle;shape=connector;rounded=0;orthogonalLoop=1;jettySize=auto;html=1;exitX=1;exitY=0;exitDx=0;exitDy=0;exitPerimeter=0;entryX=1;entryY=0;entryDx=0;entryDy=0;entryPerimeter=0;labelBackgroundColor=default;strokeColor=default;align=center;verticalAlign=middle;fontFamily=Helvetica;fontSize=11;fontColor=default;endArrow=none;endFill=0;" edge="1" parent="1" source="f1Kl81jTNJC2XIE6eOeZ-70" target="f1Kl81jTNJC2XIE6eOeZ-71">
          <mxGeometry relative="1" as="geometry" />
        </mxCell>
        <mxCell id="f1Kl81jTNJC2XIE6eOeZ-85" style="edgeStyle=orthogonalEdgeStyle;shape=connector;rounded=0;orthogonalLoop=1;jettySize=auto;html=1;exitX=1;exitY=0;exitDx=0;exitDy=0;exitPerimeter=0;entryX=1;entryY=0;entryDx=0;entryDy=0;entryPerimeter=0;labelBackgroundColor=default;strokeColor=default;align=center;verticalAlign=middle;fontFamily=Helvetica;fontSize=11;fontColor=default;endArrow=none;endFill=0;" edge="1" parent="1" source="f1Kl81jTNJC2XIE6eOeZ-74" target="f1Kl81jTNJC2XIE6eOeZ-71">
          <mxGeometry relative="1" as="geometry" />
        </mxCell>
        <mxCell id="f1Kl81jTNJC2XIE6eOeZ-86" value="NAND21" style="text;html=1;align=center;verticalAlign=middle;resizable=0;points=[];autosize=1;strokeColor=none;fillColor=none;fontSize=21;fontFamily=Helvetica;fontColor=default;" vertex="1" parent="1">
          <mxGeometry x="260" y="550" width="110" height="40" as="geometry" />
        </mxCell>
        <mxCell id="f1Kl81jTNJC2XIE6eOeZ-87" value="NAND31" style="text;html=1;align=center;verticalAlign=middle;resizable=0;points=[];autosize=1;strokeColor=none;fillColor=none;fontSize=21;fontFamily=Helvetica;fontColor=default;" vertex="1" parent="1">
          <mxGeometry x="210" y="990" width="110" height="40" as="geometry" />
        </mxCell>
        <mxCell id="f1Kl81jTNJC2XIE6eOeZ-88" value="NAND32" style="text;html=1;align=center;verticalAlign=middle;resizable=0;points=[];autosize=1;strokeColor=none;fillColor=none;fontSize=21;fontFamily=Helvetica;fontColor=default;" vertex="1" parent="1">
          <mxGeometry x="210" y="1510" width="110" height="40" as="geometry" />
        </mxCell>
        <mxCell id="f1Kl81jTNJC2XIE6eOeZ-89" value="NAND22" style="text;html=1;align=center;verticalAlign=middle;resizable=0;points=[];autosize=1;strokeColor=none;fillColor=none;fontSize=21;fontFamily=Helvetica;fontColor=default;" vertex="1" parent="1">
          <mxGeometry x="660" y="1070" width="110" height="40" as="geometry" />
        </mxCell>
        <mxCell id="f1Kl81jTNJC2XIE6eOeZ-98" value="A: N33" style="text;html=1;align=center;verticalAlign=middle;resizable=0;points=[];autosize=1;strokeColor=#6c8ebf;fillColor=#dae8fc;fontSize=11;fontFamily=Helvetica;" vertex="1" parent="1">
          <mxGeometry x="160" y="510" width="60" height="30" as="geometry" />
        </mxCell>
        <mxCell id="f1Kl81jTNJC2XIE6eOeZ-99" value="B: N31" style="text;html=1;align=center;verticalAlign=middle;resizable=0;points=[];autosize=1;strokeColor=#9673a6;fillColor=#e1d5e7;fontSize=11;fontFamily=Helvetica;" vertex="1" parent="1">
          <mxGeometry x="280" y="510" width="60" height="30" as="geometry" />
        </mxCell>
        <mxCell id="f1Kl81jTNJC2XIE6eOeZ-100" value="B: N31" style="text;html=1;align=center;verticalAlign=middle;resizable=0;points=[];autosize=1;strokeColor=#9673a6;fillColor=#e1d5e7;fontSize=11;fontFamily=Helvetica;" vertex="1" parent="1">
          <mxGeometry x="220" y="750" width="60" height="30" as="geometry" />
        </mxCell>
        <mxCell id="f1Kl81jTNJC2XIE6eOeZ-101" value="A: N33" style="text;html=1;align=center;verticalAlign=middle;resizable=0;points=[];autosize=1;strokeColor=#6c8ebf;fillColor=#dae8fc;fontSize=11;fontFamily=Helvetica;" vertex="1" parent="1">
          <mxGeometry x="220" y="630" width="60" height="30" as="geometry" />
        </mxCell>
        <mxCell id="f1Kl81jTNJC2XIE6eOeZ-102" value="A: N31" style="text;html=1;align=center;verticalAlign=middle;resizable=0;points=[];autosize=1;strokeColor=#9673a6;fillColor=#e1d5e7;fontSize=11;fontFamily=Helvetica;" vertex="1" parent="1">
          <mxGeometry x="560" y="1030" width="60" height="30" as="geometry" />
        </mxCell>
        <mxCell id="f1Kl81jTNJC2XIE6eOeZ-103" value="B: N34" style="text;html=1;align=center;verticalAlign=middle;resizable=0;points=[];autosize=1;strokeColor=#2D7600;fillColor=#60a917;fontSize=11;fontFamily=Helvetica;fontColor=#ffffff;" vertex="1" parent="1">
          <mxGeometry x="680" y="1030" width="60" height="30" as="geometry" />
        </mxCell>
        <mxCell id="f1Kl81jTNJC2XIE6eOeZ-104" value="B: N34" style="text;html=1;align=center;verticalAlign=middle;resizable=0;points=[];autosize=1;strokeColor=#2D7600;fillColor=#60a917;fontSize=11;fontFamily=Helvetica;fontColor=#ffffff;" vertex="1" parent="1">
          <mxGeometry x="620" y="1270" width="60" height="30" as="geometry" />
        </mxCell>
        <mxCell id="f1Kl81jTNJC2XIE6eOeZ-105" value="A: N31" style="text;html=1;align=center;verticalAlign=middle;resizable=0;points=[];autosize=1;strokeColor=#9673a6;fillColor=#e1d5e7;fontSize=11;fontFamily=Helvetica;" vertex="1" parent="1">
          <mxGeometry x="620" y="1150" width="60" height="30" as="geometry" />
        </mxCell>
        <mxCell id="f1Kl81jTNJC2XIE6eOeZ-106" value="A: N21" style="text;html=1;align=center;verticalAlign=middle;resizable=0;points=[];autosize=1;strokeColor=#d79b00;fillColor=#ffe6cc;fontSize=11;fontFamily=Helvetica;" vertex="1" parent="1">
          <mxGeometry x="100" y="950" width="60" height="30" as="geometry" />
        </mxCell>
        <mxCell id="f1Kl81jTNJC2XIE6eOeZ-107" value="B: CLK" style="text;html=1;align=center;verticalAlign=middle;resizable=0;points=[];autosize=1;fontSize=11;fontFamily=Helvetica;fillColor=#d5e8d4;strokeColor=#82b366;" vertex="1" parent="1">
          <mxGeometry x="220" y="950" width="60" height="30" as="geometry" />
        </mxCell>
        <mxCell id="f1Kl81jTNJC2XIE6eOeZ-108" value="C: RES" style="text;html=1;align=center;verticalAlign=middle;resizable=0;points=[];autosize=1;strokeColor=#3700CC;fillColor=#6a00ff;fontSize=11;fontFamily=Helvetica;fontColor=#ffffff;" vertex="1" parent="1">
          <mxGeometry x="340" y="950" width="60" height="30" as="geometry" />
        </mxCell>
        <mxCell id="f1Kl81jTNJC2XIE6eOeZ-109" value="A: N21" style="text;html=1;align=center;verticalAlign=middle;resizable=0;points=[];autosize=1;strokeColor=#d79b00;fillColor=#ffe6cc;fontSize=11;fontFamily=Helvetica;" vertex="1" parent="1">
          <mxGeometry x="220" y="1070" width="60" height="30" as="geometry" />
        </mxCell>
        <mxCell id="f1Kl81jTNJC2XIE6eOeZ-110" value="B: CLK" style="text;html=1;align=center;verticalAlign=middle;resizable=0;points=[];autosize=1;fontSize=11;fontFamily=Helvetica;fillColor=#d5e8d4;strokeColor=#82b366;" vertex="1" parent="1">
          <mxGeometry x="220" y="1190" width="60" height="30" as="geometry" />
        </mxCell>
        <mxCell id="f1Kl81jTNJC2XIE6eOeZ-111" value="C: RES" style="text;html=1;align=center;verticalAlign=middle;resizable=0;points=[];autosize=1;strokeColor=#3700CC;fillColor=#6a00ff;fontSize=11;fontFamily=Helvetica;fontColor=#ffffff;" vertex="1" parent="1">
          <mxGeometry x="220" y="1310" width="60" height="30" as="geometry" />
        </mxCell>
        <mxCell id="f1Kl81jTNJC2XIE6eOeZ-112" value="A: N31" style="text;html=1;align=center;verticalAlign=middle;resizable=0;points=[];autosize=1;strokeColor=#9673a6;fillColor=#e1d5e7;fontSize=11;fontFamily=Helvetica;" vertex="1" parent="1">
          <mxGeometry x="100" y="1470" width="60" height="30" as="geometry" />
        </mxCell>
        <mxCell id="f1Kl81jTNJC2XIE6eOeZ-113" value="B: CLK" style="text;html=1;align=center;verticalAlign=middle;resizable=0;points=[];autosize=1;fontSize=11;fontFamily=Helvetica;fillColor=#d5e8d4;strokeColor=#82b366;" vertex="1" parent="1">
          <mxGeometry x="220" y="1470" width="60" height="30" as="geometry" />
        </mxCell>
        <mxCell id="f1Kl81jTNJC2XIE6eOeZ-114" value="C: N33" style="text;html=1;align=center;verticalAlign=middle;resizable=0;points=[];autosize=1;strokeColor=#6c8ebf;fillColor=#dae8fc;fontSize=11;fontFamily=Helvetica;" vertex="1" parent="1">
          <mxGeometry x="340" y="1470" width="60" height="30" as="geometry" />
        </mxCell>
        <mxCell id="f1Kl81jTNJC2XIE6eOeZ-115" value="A: N31" style="text;html=1;align=center;verticalAlign=middle;resizable=0;points=[];autosize=1;strokeColor=#9673a6;fillColor=#e1d5e7;fontSize=11;fontFamily=Helvetica;" vertex="1" parent="1">
          <mxGeometry x="220" y="1590" width="60" height="30" as="geometry" />
        </mxCell>
        <mxCell id="f1Kl81jTNJC2XIE6eOeZ-116" value="B: CLK" style="text;html=1;align=center;verticalAlign=middle;resizable=0;points=[];autosize=1;fontSize=11;fontFamily=Helvetica;fillColor=#d5e8d4;strokeColor=#82b366;" vertex="1" parent="1">
          <mxGeometry x="220" y="1710" width="60" height="30" as="geometry" />
        </mxCell>
        <mxCell id="f1Kl81jTNJC2XIE6eOeZ-117" value="C: N33" style="text;html=1;align=center;verticalAlign=middle;resizable=0;points=[];autosize=1;strokeColor=#6c8ebf;fillColor=#dae8fc;fontSize=11;fontFamily=Helvetica;" vertex="1" parent="1">
          <mxGeometry x="220" y="1830" width="60" height="30" as="geometry" />
        </mxCell>
        <mxCell id="f1Kl81jTNJC2XIE6eOeZ-118" value="A: OUT" style="text;html=1;align=center;verticalAlign=middle;resizable=0;points=[];autosize=1;strokeColor=#C73500;fillColor=#fa6800;fontSize=11;fontFamily=Helvetica;fontColor=#000000;" vertex="1" parent="1">
          <mxGeometry x="500" y="1470" width="60" height="30" as="geometry" />
        </mxCell>
        <mxCell id="f1Kl81jTNJC2XIE6eOeZ-119" value="B: N32" style="text;html=1;align=center;verticalAlign=middle;resizable=0;points=[];autosize=1;strokeColor=#005700;fillColor=#008a00;fontSize=11;fontFamily=Helvetica;fontColor=#ffffff;" vertex="1" parent="1">
          <mxGeometry x="620" y="1470" width="60" height="30" as="geometry" />
        </mxCell>
        <mxCell id="f1Kl81jTNJC2XIE6eOeZ-120" value="C: RES" style="text;html=1;align=center;verticalAlign=middle;resizable=0;points=[];autosize=1;strokeColor=#3700CC;fillColor=#6a00ff;fontSize=11;fontFamily=Helvetica;fontColor=#ffffff;" vertex="1" parent="1">
          <mxGeometry x="740" y="1470" width="60" height="30" as="geometry" />
        </mxCell>
        <mxCell id="f1Kl81jTNJC2XIE6eOeZ-121" value="A: OUT" style="text;html=1;align=center;verticalAlign=middle;resizable=0;points=[];autosize=1;strokeColor=#C73500;fillColor=#fa6800;fontSize=11;fontFamily=Helvetica;fontColor=#000000;" vertex="1" parent="1">
          <mxGeometry x="620" y="1590" width="60" height="30" as="geometry" />
        </mxCell>
        <mxCell id="f1Kl81jTNJC2XIE6eOeZ-122" value="B: N32" style="text;html=1;align=center;verticalAlign=middle;resizable=0;points=[];autosize=1;strokeColor=#005700;fillColor=#008a00;fontSize=11;fontFamily=Helvetica;fontColor=#ffffff;" vertex="1" parent="1">
          <mxGeometry x="620" y="1710" width="60" height="30" as="geometry" />
        </mxCell>
        <mxCell id="f1Kl81jTNJC2XIE6eOeZ-123" value="C: RES" style="text;html=1;align=center;verticalAlign=middle;resizable=0;points=[];autosize=1;strokeColor=#3700CC;fillColor=#6a00ff;fontSize=11;fontFamily=Helvetica;fontColor=#ffffff;" vertex="1" parent="1">
          <mxGeometry x="620" y="1830" width="60" height="30" as="geometry" />
        </mxCell>
        <mxCell id="f1Kl81jTNJC2XIE6eOeZ-124" value="A: N32" style="text;html=1;align=center;verticalAlign=middle;resizable=0;points=[];autosize=1;strokeColor=#005700;fillColor=#008a00;fontSize=11;fontFamily=Helvetica;fontColor=#ffffff;" vertex="1" parent="1">
          <mxGeometry x="100" y="1990" width="60" height="30" as="geometry" />
        </mxCell>
        <mxCell id="f1Kl81jTNJC2XIE6eOeZ-125" value="B: DATA" style="text;html=1;align=center;verticalAlign=middle;resizable=0;points=[];autosize=1;strokeColor=#001DBC;fillColor=#0050ef;fontSize=11;fontFamily=Helvetica;fontColor=#ffffff;" vertex="1" parent="1">
          <mxGeometry x="220" y="1990" width="60" height="30" as="geometry" />
        </mxCell>
        <mxCell id="f1Kl81jTNJC2XIE6eOeZ-126" value="C: RES" style="text;html=1;align=center;verticalAlign=middle;resizable=0;points=[];autosize=1;strokeColor=#3700CC;fillColor=#6a00ff;fontSize=11;fontFamily=Helvetica;fontColor=#ffffff;" vertex="1" parent="1">
          <mxGeometry x="340" y="1990" width="60" height="30" as="geometry" />
        </mxCell>
        <mxCell id="f1Kl81jTNJC2XIE6eOeZ-127" value="A: N32" style="text;html=1;align=center;verticalAlign=middle;resizable=0;points=[];autosize=1;strokeColor=#005700;fillColor=#008a00;fontSize=11;fontFamily=Helvetica;fontColor=#ffffff;" vertex="1" parent="1">
          <mxGeometry x="220" y="2110" width="60" height="30" as="geometry" />
        </mxCell>
        <mxCell id="f1Kl81jTNJC2XIE6eOeZ-128" value="B: DATA" style="text;html=1;align=center;verticalAlign=middle;resizable=0;points=[];autosize=1;strokeColor=#001DBC;fillColor=#0050ef;fontSize=11;fontFamily=Helvetica;fontColor=#ffffff;" vertex="1" parent="1">
          <mxGeometry x="220" y="2230" width="60" height="30" as="geometry" />
        </mxCell>
        <mxCell id="f1Kl81jTNJC2XIE6eOeZ-129" value="C: RES" style="text;html=1;align=center;verticalAlign=middle;resizable=0;points=[];autosize=1;strokeColor=#3700CC;fillColor=#6a00ff;fontSize=11;fontFamily=Helvetica;fontColor=#ffffff;" vertex="1" parent="1">
          <mxGeometry x="220" y="2350" width="60" height="30" as="geometry" />
        </mxCell>
        <mxCell id="f1Kl81jTNJC2XIE6eOeZ-130" value="N21" style="text;html=1;align=center;verticalAlign=middle;resizable=0;points=[];autosize=1;strokeColor=#d79b00;fillColor=#ffe6cc;fontSize=11;fontFamily=Helvetica;" vertex="1" parent="1">
          <mxGeometry x="390" y="550" width="40" height="30" as="geometry" />
        </mxCell>
        <mxCell id="f1Kl81jTNJC2XIE6eOeZ-131" value="OUT" style="text;html=1;align=center;verticalAlign=middle;resizable=0;points=[];autosize=1;strokeColor=#C73500;fillColor=#fa6800;fontSize=11;fontFamily=Helvetica;fontColor=#000000;" vertex="1" parent="1">
          <mxGeometry x="785" y="1070" width="50" height="30" as="geometry" />
        </mxCell>
        <mxCell id="f1Kl81jTNJC2XIE6eOeZ-132" value="N31" style="text;html=1;align=center;verticalAlign=middle;resizable=0;points=[];autosize=1;strokeColor=#9673a6;fillColor=#e1d5e7;fontSize=11;fontFamily=Helvetica;" vertex="1" parent="1">
          <mxGeometry x="450" y="990" width="40" height="30" as="geometry" />
        </mxCell>
        <mxCell id="f1Kl81jTNJC2XIE6eOeZ-133" value="N32" style="text;html=1;align=center;verticalAlign=middle;resizable=0;points=[];autosize=1;strokeColor=#005700;fillColor=#008a00;fontSize=11;fontFamily=Helvetica;fontColor=#ffffff;" vertex="1" parent="1">
          <mxGeometry x="450" y="1530" width="40" height="30" as="geometry" />
        </mxCell>
        <mxCell id="f1Kl81jTNJC2XIE6eOeZ-134" value="N34" style="text;html=1;align=center;verticalAlign=middle;resizable=0;points=[];autosize=1;strokeColor=#2D7600;fillColor=#60a917;fontSize=11;fontFamily=Helvetica;fontColor=#ffffff;" vertex="1" parent="1">
          <mxGeometry x="850" y="1510" width="40" height="30" as="geometry" />
        </mxCell>
        <mxCell id="f1Kl81jTNJC2XIE6eOeZ-135" value="N33" style="text;html=1;align=center;verticalAlign=middle;resizable=0;points=[];autosize=1;strokeColor=#6c8ebf;fillColor=#dae8fc;fontSize=11;fontFamily=Helvetica;" vertex="1" parent="1">
          <mxGeometry x="450" y="2030" width="40" height="30" as="geometry" />
        </mxCell>
        <mxCell id="f1Kl81jTNJC2XIE6eOeZ-136" value="NAND33" style="text;html=1;align=center;verticalAlign=middle;resizable=0;points=[];autosize=1;strokeColor=none;fillColor=none;fontSize=21;fontFamily=Helvetica;fontColor=default;" vertex="1" parent="1">
          <mxGeometry x="210" y="2030" width="110" height="40" as="geometry" />
        </mxCell>
        <mxCell id="f1Kl81jTNJC2XIE6eOeZ-137" value="NAND34" style="text;html=1;align=center;verticalAlign=middle;resizable=0;points=[];autosize=1;strokeColor=none;fillColor=none;fontSize=21;fontFamily=Helvetica;fontColor=default;" vertex="1" parent="1">
          <mxGeometry x="610" y="1510" width="110" height="40" as="geometry" />
        </mxCell>
        <mxCell id="f1Kl81jTNJC2XIE6eOeZ-138" value="" style="pointerEvents=1;verticalLabelPosition=bottom;shadow=0;dashed=0;align=center;html=1;verticalAlign=top;shape=mxgraph.electrical.signal_sources.protective_earth;fontFamily=Helvetica;fontSize=11;fontColor=default;" vertex="1" parent="1">
          <mxGeometry x="300" y="2420" width="40" height="20" as="geometry" />
        </mxCell>
        <mxCell id="f1Kl81jTNJC2XIE6eOeZ-139" value="" style="pointerEvents=1;verticalLabelPosition=bottom;shadow=0;dashed=0;align=center;html=1;verticalAlign=top;shape=mxgraph.electrical.signal_sources.protective_earth;fontFamily=Helvetica;fontSize=11;fontColor=default;" vertex="1" parent="1">
          <mxGeometry x="700" y="1890" width="40" height="20" as="geometry" />
        </mxCell>
        <mxCell id="f1Kl81jTNJC2XIE6eOeZ-140" value="" style="pointerEvents=1;verticalLabelPosition=bottom;shadow=0;dashed=0;align=center;html=1;verticalAlign=top;shape=mxgraph.electrical.signal_sources.protective_earth;fontFamily=Helvetica;fontSize=11;fontColor=default;" vertex="1" parent="1">
          <mxGeometry x="300" y="1890" width="40" height="20" as="geometry" />
        </mxCell>
        <mxCell id="f1Kl81jTNJC2XIE6eOeZ-141" value="" style="pointerEvents=1;verticalLabelPosition=bottom;shadow=0;dashed=0;align=center;html=1;verticalAlign=top;shape=mxgraph.electrical.signal_sources.protective_earth;fontFamily=Helvetica;fontSize=11;fontColor=default;" vertex="1" parent="1">
          <mxGeometry x="700" y="1330" width="40" height="20" as="geometry" />
        </mxCell>
        <mxCell id="f1Kl81jTNJC2XIE6eOeZ-143" style="edgeStyle=orthogonalEdgeStyle;shape=connector;rounded=0;orthogonalLoop=1;jettySize=auto;html=1;exitX=0.5;exitY=0;exitDx=0;exitDy=0;exitPerimeter=0;entryX=1;entryY=1;entryDx=0;entryDy=0;entryPerimeter=0;labelBackgroundColor=default;strokeColor=default;align=center;verticalAlign=middle;fontFamily=Helvetica;fontSize=11;fontColor=default;endArrow=none;endFill=0;" edge="1" parent="1" source="f1Kl81jTNJC2XIE6eOeZ-138" target="f1Kl81jTNJC2XIE6eOeZ-58">
          <mxGeometry relative="1" as="geometry" />
        </mxCell>
        <mxCell id="f1Kl81jTNJC2XIE6eOeZ-144" style="edgeStyle=orthogonalEdgeStyle;shape=connector;rounded=0;orthogonalLoop=1;jettySize=auto;html=1;exitX=0.5;exitY=0;exitDx=0;exitDy=0;exitPerimeter=0;entryX=1;entryY=1;entryDx=0;entryDy=0;entryPerimeter=0;labelBackgroundColor=default;strokeColor=default;align=center;verticalAlign=middle;fontFamily=Helvetica;fontSize=11;fontColor=default;endArrow=none;endFill=0;" edge="1" parent="1" source="f1Kl81jTNJC2XIE6eOeZ-140" target="f1Kl81jTNJC2XIE6eOeZ-45">
          <mxGeometry relative="1" as="geometry" />
        </mxCell>
        <mxCell id="f1Kl81jTNJC2XIE6eOeZ-145" style="edgeStyle=orthogonalEdgeStyle;shape=connector;rounded=0;orthogonalLoop=1;jettySize=auto;html=1;exitX=0.5;exitY=0;exitDx=0;exitDy=0;exitPerimeter=0;entryX=1;entryY=1;entryDx=0;entryDy=0;entryPerimeter=0;labelBackgroundColor=default;strokeColor=default;align=center;verticalAlign=middle;fontFamily=Helvetica;fontSize=11;fontColor=default;endArrow=none;endFill=0;" edge="1" parent="1" source="f1Kl81jTNJC2XIE6eOeZ-139" target="f1Kl81jTNJC2XIE6eOeZ-75">
          <mxGeometry relative="1" as="geometry" />
        </mxCell>
        <mxCell id="f1Kl81jTNJC2XIE6eOeZ-146" style="edgeStyle=orthogonalEdgeStyle;shape=connector;rounded=0;orthogonalLoop=1;jettySize=auto;html=1;exitX=0.5;exitY=0;exitDx=0;exitDy=0;exitPerimeter=0;entryX=1;entryY=1;entryDx=0;entryDy=0;entryPerimeter=0;labelBackgroundColor=default;strokeColor=default;align=center;verticalAlign=middle;fontFamily=Helvetica;fontSize=11;fontColor=default;endArrow=none;endFill=0;" edge="1" parent="1" source="f1Kl81jTNJC2XIE6eOeZ-141" target="f1Kl81jTNJC2XIE6eOeZ-68">
          <mxGeometry relative="1" as="geometry" />
        </mxCell>
        <mxCell id="f1Kl81jTNJC2XIE6eOeZ-147" value="" style="pointerEvents=1;verticalLabelPosition=bottom;shadow=0;dashed=0;align=center;html=1;verticalAlign=top;shape=mxgraph.electrical.signal_sources.protective_earth;fontFamily=Helvetica;fontSize=11;fontColor=default;" vertex="1" parent="1">
          <mxGeometry x="300" y="810" width="40" height="20" as="geometry" />
        </mxCell>
        <mxCell id="f1Kl81jTNJC2XIE6eOeZ-148" value="" style="pointerEvents=1;verticalLabelPosition=bottom;shadow=0;dashed=0;align=center;html=1;verticalAlign=top;shape=mxgraph.electrical.signal_sources.protective_earth;fontFamily=Helvetica;fontSize=11;fontColor=default;" vertex="1" parent="1">
          <mxGeometry x="300" y="1370" width="40" height="20" as="geometry" />
        </mxCell>
        <mxCell id="f1Kl81jTNJC2XIE6eOeZ-149" style="edgeStyle=orthogonalEdgeStyle;shape=connector;rounded=0;orthogonalLoop=1;jettySize=auto;html=1;exitX=0.5;exitY=0;exitDx=0;exitDy=0;exitPerimeter=0;entryX=1;entryY=1;entryDx=0;entryDy=0;entryPerimeter=0;labelBackgroundColor=default;strokeColor=default;align=center;verticalAlign=middle;fontFamily=Helvetica;fontSize=11;fontColor=default;endArrow=none;endFill=0;" edge="1" parent="1" source="f1Kl81jTNJC2XIE6eOeZ-148" target="f1Kl81jTNJC2XIE6eOeZ-10">
          <mxGeometry relative="1" as="geometry" />
        </mxCell>
        <mxCell id="f1Kl81jTNJC2XIE6eOeZ-150" style="edgeStyle=orthogonalEdgeStyle;shape=connector;rounded=0;orthogonalLoop=1;jettySize=auto;html=1;exitX=0.5;exitY=0;exitDx=0;exitDy=0;exitPerimeter=0;entryX=1;entryY=1;entryDx=0;entryDy=0;entryPerimeter=0;labelBackgroundColor=default;strokeColor=default;align=center;verticalAlign=middle;fontFamily=Helvetica;fontSize=11;fontColor=default;endArrow=none;endFill=0;" edge="1" parent="1" source="f1Kl81jTNJC2XIE6eOeZ-147" target="f1Kl81jTNJC2XIE6eOeZ-4">
          <mxGeometry relative="1" as="geometry" />
        </mxCell>
      </root>
    </mxGraphModel>
  </diagram>
</mxfile>
